<?xml version="1.0" encoding="UTF-8"?>
<svg width="465px" height="465px" viewBox="0 0 465 465" version="1.1" xmlns="http://www.w3.org/2000/svg" xmlns:xlink="http://www.w3.org/1999/xlink">
    <title>app</title>
    <g id="Page-1" stroke="none" stroke-width="1" fill="none" fill-rule="evenodd">
        <g id="app" fill-rule="nonzero">
            <path d="M17.886719,464.003906 C12.34375,464.003906 7.195312,461.132812 4.277344,456.417969 C1.363281,451.699219 1.097656,445.8125 3.574219,440.851562 L3.574219,440.851562 L105.6875,268.628906 C108.367188,263.175781 113.925781,259.738281 120,259.777015 L120,259.777015 L120.349847,259.778626 C126.286946,259.871238 131.684344,263.280649 134.3125,268.628906 L134.3125,268.628906 L236.425781,440.851562 C238.902344,445.8125 238.636719,451.699219 235.722656,456.417969 C232.804688,461.132812 227.65625,464.003906 222.113281,464.003906 L222.113281,464.003906 Z" id="Combined-Shape" fill="#7ED63E"></path>
            <path d="M16,208.003906 C7.164062,208.003906 0,200.839844 0,192.003906 L0,192.003906 L0,16.0039062 C0,7.167969 7.164062,0.00390625 16,0.00390625 L16,0.00390625 L192,0.00390625 C200.835938,0.00390625 208,7.167969 208,16.0039062 L208,16.0039062 L208,192.003906 C208,200.839844 200.835938,208.003906 192,208.003906 L192,208.003906 Z" id="Combined-Shape" fill="#46F8FF"></path>
            <path d="M358.280173,207.989973 C301.635906,207.071569 256,160.867031 256,104.003906 C256,46.566406 302.5625,0.00390625 360,0.00390625 L360,0.00390625 L361.719827,0.0178393124 C418.364094,0.936243745 464,47.140781 464,104.003906 C464,161.441406 417.4375,208.003906 360,208.003906 L360,208.003906 Z" id="Combined-Shape" fill="#FFCD00"></path>
            <path d="M359.969008,463.982821 C357.9304,462.593969 256,392.867031 256,336.003906 C255.726562,313.136719 264.980469,291.191406 281.542969,275.425781 C288.988281,267.714844 299.230469,263.328125 309.949219,263.260953 C320.667969,263.195312 330.960938,267.449219 338.503906,275.066406 L338.503906,275.066406 L360,296.5625 L381.496094,275.066406 C389.039062,267.449219 399.332031,263.195312 410.050781,263.260953 C420.769531,263.328125 431.011719,267.714844 438.457031,275.425781 C455.019531,291.191406 464.273438,313.136719 464,336.003906 C464,392.292656 364.1184,461.186656 360.123136,463.9199 L360,464.003906 Z" id="Combined-Shape" fill="#FF3051"></path>
        </g>
    </g>
</svg>